name C:/MyDriveSym/Projects/mobilecap/Data\Session20210820_0002\mocap\ForceDataProcessed\walking3_forces.mot
datacolumns 19
datarows 17
range 0.00000000 0.00800000
endheader 
time	R_ground_force_vx	R_ground_force_vy	R_ground_force_vz	R_ground_force_px	R_ground_force_py	R_ground_force_pz	R_ground_torque_x	R_ground_torque_y	R_ground_torque_z	L_ground_force_vx	L_ground_force_vy	L_ground_force_vz	L_ground_force_px	L_ground_force_py	L_ground_force_pz	L_ground_torque_x	L_ground_torque_y	L_ground_torque_z	
          0.00000000	          1.46038000	         83.63404000	          3.57170100	          0.07303600	          0.00600000	         -0.14534600	          0.00000000	          0.33748700	          0.00000000	          0.00000000	          0.00000000	          0.00000000	          0.71741800	          0.00000000	         -0.18202100	          0.00000000	          0.00000000	          0.00000000	
          0.00050000	          1.28594400	         85.25038100	          3.60428400	          0.07303600	          0.00600000	         -0.14534600	          0.00000000	          0.33886800	          0.00000000	          0.00000000	          0.00000000	          0.00000000	          0.71741800	          0.00000000	         -0.18202100	          0.00000000	          0.00000000	          0.00000000	
          0.00100000	          1.10815100	         86.88192500	          3.63692600	          0.07303600	          0.00600000	         -0.14534600	          0.00000000	          0.34029200	          0.00000000	          0.00000000	          0.00000000	          0.00000000	          0.71741800	          0.00000000	         -0.18202100	          0.00000000	          0.00000000	          0.00000000	
          0.00150000	          0.92697000	         88.52868700	          3.66962200	          0.07303600	          0.00600000	         -0.14534600	          0.00000000	          0.34175900	          0.00000000	          0.00000000	          0.00000000	          0.00000000	          0.71741800	          0.00000000	         -0.18202100	          0.00000000	          0.00000000	          0.00000000	
          0.00200000	          0.74236800	         90.19067600	          3.70236900	          0.07349300	          0.00600000	         -0.14536800	          0.00000000	          0.34326800	          0.00000000	          0.00000000	          0.00000000	          0.00000000	          0.71741800	          0.00000000	         -0.18202100	          0.00000000	          0.00000000	          0.00000000	
          0.00250000	          0.55431400	         91.86790100	          3.73516100	          0.07394100	          0.00600000	         -0.14539000	          0.00000000	          0.34481900	          0.00000000	          0.00000000	          0.00000000	          0.00000000	          0.71741800	          0.00000000	         -0.18202100	          0.00000000	          0.00000000	          0.00000000	
          0.00300000	          0.36277500	         93.56036800	          3.76799500	          0.07438000	          0.00600000	         -0.14541100	          0.00000000	          0.34641000	          0.00000000	          0.00000000	          0.00000000	          0.00000000	          0.71741800	          0.00000000	         -0.18202100	          0.00000000	          0.00000000	          0.00000000	
          0.00350000	          0.16772000	         95.26808000	          3.80086500	          0.07481000	          0.00600000	         -0.14543200	          0.00000000	          0.34804100	          0.00000000	          0.00000000	          0.00000000	          0.00000000	          0.71741800	          0.00000000	         -0.18202100	          0.00000000	          0.00000000	          0.00000000	
          0.00400000	         -0.03088300	         96.99103900	          3.83376800	          0.07523100	          0.00600000	         -0.14545200	          0.00000000	          0.34971200	          0.00000000	          0.00000000	          0.00000000	          0.00000000	          0.71741800	          0.00000000	         -0.18202100	          0.00000000	          0.00000000	          0.00000000	
          0.00450000	         -0.23306700	         98.72924300	          3.86669800	          0.07564400	          0.00600000	         -0.14547200	          0.00000000	          0.35142200	          0.00000000	          0.00000000	          0.00000000	          0.00000000	          0.71741800	          0.00000000	         -0.18202100	          0.00000000	          0.00000000	          0.00000000	
          0.00500000	         -0.43886200	        100.48269000	          3.89965200	          0.07604900	          0.00600000	         -0.14549100	          0.00000000	          0.35317100	          0.00000000	          0.00000000	          0.00000000	          0.00000000	          0.71741800	          0.00000000	         -0.18202100	          0.00000000	          0.00000000	          0.00000000	
          0.00550000	         -0.64830200	        102.25137300	          3.93262300	          0.07644700	          0.00600000	         -0.14551000	          0.00000000	          0.35495900	          0.00000000	          0.00000000	          0.00000000	          0.00000000	          0.71741800	          0.00000000	         -0.18202100	          0.00000000	          0.00000000	          0.00000000	
          0.00600000	         -0.86141700	        104.03528500	          3.96560800	          0.07683700	          0.00600000	         -0.14552800	          0.00000000	          0.35678500	          0.00000000	          0.00000000	          0.00000000	          0.00000000	          0.71741800	          0.00000000	         -0.18202100	          0.00000000	          0.00000000	          0.00000000	
          0.00650000	         -1.07824100	        105.83441300	          3.99860200	          0.07722000	          0.00600000	         -0.14554600	          0.00000000	          0.35864800	          0.00000000	          0.00000000	          0.00000000	          0.00000000	          0.71741800	          0.00000000	         -0.18202100	          0.00000000	          0.00000000	          0.00000000	
          0.00700000	         -1.29880400	        107.64874600	          4.03159800	          0.07759600	          0.00600000	         -0.14556400	          0.00000000	          0.36054900	          0.00000000	          0.00000000	          0.00000000	          0.00000000	          0.71741800	          0.00000000	         -0.18202100	          0.00000000	          0.00000000	          0.00000000	
          0.00750000	         -1.52313900	        109.47826600	          4.06459300	          0.07796600	          0.00600000	         -0.14558100	          0.00000000	          0.36248700	          0.00000000	          0.00000000	          0.00000000	          0.00000000	          0.71741800	          0.00000000	         -0.18202100	          0.00000000	          0.00000000	          0.00000000	
          0.00800000	         -1.75127800	        111.32295700	          4.09758000	          0.07832900	          0.00600000	         -0.14559800	          0.00000000	          0.36446200	          0.00000000	          0.00000000	          0.00000000	          0.00000000	          0.71741800	          0.00000000	         -0.18202100	          0.00000000	          0.00000000	          0.00000000	
